<svg xmlns="http://www.w3.org/2000/svg" viewBox="0 0 1200 412.28" fill="currentColor">
  <path d="M1199.84 106.08c-2.53-46.07-59.19-71.48-100.21-53.75-19.89 8.6-42.76 18-52.55 31.69-10.94 15.3-8.03 35.18-16.72 49.65-12.43 20.7-28.14 36.67-63.15 36.8-55.03.98-4.59-35.21-6.84-66.05v-.47c-.09-29.09-34.77-49.01-60.21-35.84-8.77 4.54-15.41 12.2-20.41 20.58-9.25 15.51-13.77 33.94-14.99 51.84-1.16 17.01-.12 40.08 10.96 54 5.3 6.65 12.38 12.78 20.24 15.84 29.79 11.61 47.74 14.58 48.03 29.1.38 18.97-16.68 33.57-50.05 42.54-25.09 6.74-46.7 12-65.69 16.2-29.13 6.44-53.28-.17-73.26 2.87-33.42 5.08-57.29 18.15-88.57 25.36-20.51 4.73-68.49 7.8-82.3 47.37-27.62 79.11 119.74 13.64 150.77 1.51 11.45-4.48 23.02-9.32 34.02-14.75 50.28-24.83 108.22-30.53 159.68-53.29 51.77-22.89 77.82-46.12 118.58-85.61 10.22-9.03 30.6-14.94 47.92-24.28 15.6-8.41 28.01-20.68 40.34-22.03 31.49-3.45 67.26-17.75 64.43-69.28ZM349.33 108.93c6.09-14.1 6.99-29.97 5.81-45.11-1.44-18.43-7.58-37.52-21.49-50.36-20.52-18.95-50.12-15.02-73.17-3.2-16.36 8.39-30.9 22.03-36.41 39.99-5.88 29.05 13.9 46.29-3.84 77.21-4.81 8.14-13.39 9.03-25.5 25.05-6.23 8.23-13.7 28.61-22.12 35.6-22.66 18.8-44.86 21.23-66.07 19.18l-.41-.11c-23.41-7.34-7.91-37.87-8.02-56.98.51-15.88-11.99-29.23-27.43-31.58-26.04-5.08-54.08 9.32-64.14 33.75-13.47 30.26-5.61 66.75 19.09 88.4 15.3 12.3 30.92 19.73 46.67 23.28 18.92 4.27 31.92 9.13 60.83 1.83 27.19-6.87 27.71-15.44 43.11-24.17 38.52-21.85 55.69-43.07 86.5-69.69 22.08-19.09 73.89-33.61 86.61-63.07ZM33.8 190.86c.16.12.29.23.42.33-.44.48-.82.19-.42-.33Zm119.38 31.9.06-.17.12.14-.18.03ZM544.45 192.81c-42.33-22.6-76.74 21.26-107.9 9.36-16.58-7.17-30.09-29.8-32.62-48-1.89-13.62 8.77-15.35 19.72-13.04 16.56 3.5 31.68 11.5 48.62 14.16 27.52 4.33 59.24-4.38 78.91-24.77 5.46-5.66 9.74-12.63 11.39-20.33 2.06-9.65-.15-19.88-4.72-28.63-13.58-26.03-40.95-38.66-69.53-37.79-23.35.71-40.91 3.97-60.79 15.94-9.73 5.86-21.84 8.55-34.86 17.92-20.49 14.73-21.7 28.27-28.44 35.64-16.64 18.2-19.37 27.25-25.13 51.8l-.02.44c-4.44 24.59-2.07 47.04 4.98 65.28 2.99 7.73 4.77 17.39 8.69 23.85 8.94 14.73 18.45 13.7 28.23 18.1 39.04 17.56 68.48-2.82 94.51 4.57 18.37 5.21 18.15 28.74 45.27 24.12 40.54-6.91 51.15-52.04 42.92-84.23-2.51-9.76-9.02-18.8-19.24-24.37Zm6.11-63.18.13.17-.21.03.07-.2Zm-77.47-38.92c5.8-.65 11.74-.67 17.57-.32 3.47.21 14.97 1.52 15.83 5.87 1.75 8.82-20.34 9.3-26.6 9.21-.32 0-.6-.01-.83-.02-4.87-.13-19.09-.36-19.3-7.81-.14-5.06 9.71-6.53 13.34-6.94Z"/>
  <path d="M699.7 183.48c-34.25 68.18 1.15 78.08 10.69 81.54 14.67 5.32 47.15 5.9 58.51-5 8.43-8.08 11.94-22.87 10.59-32.98-1.05-7.84-12.5-15.87-13.87-23.73-1.85-10.59-1.8-20.71 6.12-29.07 10.28-11.4 35.17-19.55 48.5-26.77 29.13-15.78 47.49-63.53 36.63-100.77-6.78-23.24-29.29-38.61-59.78-37.3 0 0-31.03-.31-47.22 50.48-5.94 18.65-29.08 45.52-34.63 64.23-6 20.22-6.06 40.52-15.53 59.37Z"/>
  <path d="m801.5 169.99-.15.06.12.1.03-.16zM602.49 255.45c11.85 1.9 35.12-2.94 45.35-10.51 35.81-27.95 15.99-83.87 32.87-124.53 12.13-30.18 50.74-50.34 47.26-84.78-4.37-23.9-16.39-36.35-53.86-35.6h-.39c-33.15-.38-49.77 20.35-59.35 48.63-4.07 12-12.03 20.1-14.29 33.78-1.87 11.34 1.78 28.17.23 39.36-3.68 26.61-7.61 51.13-17.37 65.61-14.53 23.67-10.71 62.69 19.55 68.03Z"/>
</svg>