<svg xmlns="http://www.w3.org/2000/svg" viewBox="0 0 100 48.78" fill="currentColor">
  <path d="M19.33 6.51c14.13-.53 27.78-.46 41.81 1.46 11.85 1.63 23.99.48 35.9.17 3.94-.11 3.95-6.23 0-6.13-13.12.35-25.94 1.11-38.96-.67C45.19-.42 32.29-.11 19.33.38c-3.93.15-3.95 6.27 0 6.13ZM90.05 22.9c-15.94 2.42-29.72-7.97-45.21-3.14-14.59 4.54-27.96-2.08-42.62.58-3.87.7-2.23 6.61 1.63 5.91 8.56-1.55 16.67 1.03 25.14 1.84 6.4.61 11.38-.65 17.48-2.42 9.09-2.62 15.2.36 23.76 2.47 7.18 1.77 14.18 1.78 21.46.67 3.89-.59 2.23-6.5-1.63-5.91ZM18.64 45.32c14.36-1.05 27.43 1.42 41.57 3.21 12.11 1.54 24.19-4.76 35.98-.64 3.73 1.3 5.33-4.61 1.63-5.91-12.88-4.5-25.56 2.34-38.66.22-13.71-2.22-26.54-4.03-40.52-3.01-3.91.29-3.94 6.42 0 6.13Z"/>
  <path d="M19.33 6.51c14.13-.53 27.78-.46 41.81 1.46 11.85 1.63 23.99.48 35.9.17 3.94-.11 3.95-6.23 0-6.13-13.12.35-25.94 1.11-38.96-.67C45.19-.42 32.29-.11 19.33.38c-3.93.15-3.95 6.27 0 6.13ZM90.05 22.9c-15.94 2.42-29.72-7.97-45.21-3.14-14.59 4.54-27.96-2.08-42.62.58-3.87.7-2.23 6.61 1.63 5.91 8.56-1.55 16.67 1.03 25.14 1.84 6.4.61 11.38-.65 17.48-2.42 9.09-2.62 15.2.36 23.76 2.47 7.18 1.77 14.18 1.78 21.46.67 3.89-.59 2.23-6.5-1.63-5.91ZM18.64 45.32c14.36-1.05 27.43 1.42 41.57 3.21 12.11 1.54 24.19-4.76 35.98-.64 3.73 1.3 5.33-4.61 1.63-5.91-12.88-4.5-25.56 2.34-38.66.22-13.71-2.22-26.54-4.03-40.52-3.01-3.91.29-3.94 6.42 0 6.13Z"/>
</svg>