<svg xmlns="http://www.w3.org/2000/svg" viewBox="0 0 78 67.82" fill="currentColor">
  <path d="M77.18 9.03C72.3 14.67 66.9 19.1 60.25 22.49c-6.54 3.32-11.62 5.62-16.22 9.74 8.49 10 16.97 20.01 26.26 29.43 2.91 2.95-1.63 7.5-4.54 4.54-9.24-9.37-17.68-19.31-26.12-29.24-.72.93-1.43 1.93-2.15 3.01-8.06 12.26-23.01 15.69-32.16 26.77-2.64 3.2-7.15-1.37-4.54-4.54 4.56-5.53 10-8.98 16.02-12.7 8.48-5.23 12.5-10.33 18.18-18-7.58-8.89-15.27-17.71-23.64-26.01C8.4 2.57 12.95-1.97 15.89.95c8.25 8.19 15.83 16.86 23.31 25.62 3.17-2.92 6.89-4.83 11.09-6.72 8.84-3.99 15.83-7.83 22.33-15.34 2.71-3.14 7.24 1.43 4.55 4.54Z"/>
</svg>