<svg xmlns="http://www.w3.org/2000/svg" viewBox="0 0 119.91 116.8" fill="currentColor">
  <path d="M62.04 116.75c-17.54.63-32.51-5.21-44.48-16.51C2.05 85.61-3.31 67.17 1.98 46.04 6.63 27.5 18.69 14.72 34.36 5.16 43.14-.2 53.5-.87 63.4.83c17.12 2.95 31.96 10.77 42.96 24.58 6.18 7.75 10.44 16.63 12.53 26.43 2.02 9.47 1.08 18.72-3.18 27.35-4.02 8.13-7.96 16.32-15.14 22.48-11.32 9.71-24.04 15.37-38.53 15.09ZM59.34 4.38c-.07-.37-.13-.73-.2-1.1-6.44 1.49-13.03 2.52-19.3 4.54C21.57 13.74 11.1 26.83 7.09 45.28c-1 4.6-.86 9.44-1.73 14.08-3.02 16.08 5.4 27.84 15.51 38.11 8.26 8.38 19.26 13.44 31.09 14.73 6.96.76 14.18-.63 21.26-1.3 11.54-1.09 20.5-7.31 28.05-15.45 7.73-8.33 11.24-18.92 13.47-29.83.83-4.08 1.61-8.75.47-12.56-4.42-14.82-11.9-27.77-24.91-37.06C80.95 9.32 71.49 3.43 59.33 4.39Z"/>
  <path d="M66.15 45.07c1.66 0 3.12.15 4.53-.03 3.58-.45 4.89 1.29 4.79 4.61-.03 1.09.03 2.19 0 3.28-.17 6.72-.18 6.78-6.68 6.89-2.03.04-2.78.86-2.85 2.83-.37 9.95-.96 19.9-1.17 29.85-.15 7.19.06 7.19-7.37 6.9-2.91-.11-5.83-.35-8.74-.29-2.64.05-3.58-1.01-3.65-3.65-.25-9.83-.83-19.66-.98-29.5-.05-3.04-.63-4.68-3.98-4.16-3.85.6-4.53-1.52-4.21-4.74.3-3.02.6-6.07.47-9.09-.12-2.77.89-3.77 3.56-3.56 1.66.13 3.33.02 4.93.02.49-3.76.8-7.24 1.43-10.65 1.64-8.87 6.09-13.47 14.93-14.27 4.97-.45 10.06.45 15.09.81 2.63.19 3.14 1.75 2.54 4.08-.63 2.47-1.38 4.95-1.61 7.47-.21 2.26-1.23 3-3.3 3.49-6.16 1.47-7.16 2.79-7.75 9.72Z"/>
</svg>